/* XPM */
static char *rgb[] = {
/* columns rows colors chars-per-pixel */
"20 20 190 2 ",
"   c #000646",
".  c #001943",
"X  c #14104D",
"o  c #000C53",
"O  c #060F5A",
"+  c #00135D",
"@  c #001D5E",
"#  c #051D59",
"$  c #101454",
"%  c #031D62",
"&  c #00176D",
"*  c #041A69",
"=  c #051E75",
"-  c #161865",
";  c #032364",
":  c #00226B",
">  c #09256C",
",  c #0E2B63",
"<  c #1E2D68",
"1  c #022275",
"2  c #0B2374",
"3  c #052973",
"4  c #01247B",
"5  c #0B257C",
"6  c #0A2B7C",
"7  c #0D2F77",
"8  c #122571",
"9  c #1F3171",
"0  c #20376B",
"q  c #39367A",
"w  c #423167",
"e  c #3B556C",
"r  c #4A4D7E",
"t  c #4D557E",
"y  c #435B77",
"u  c #B8081F",
"i  c #B90B14",
"p  c #BB0D26",
"a  c #BA0E29",
"s  c #B91222",
"d  c #BB162C",
"f  c #A91B36",
"g  c #BA1633",
"h  c #B61D32",
"j  c #A71329",
"k  c #A9282D",
"l  c #B6262F",
"z  c #A9233C",
"x  c #A82535",
"c  c #B12535",
"v  c #BC2135",
"b  c #B32A3E",
"n  c #BD2C3B",
"m  c #B62938",
"M  c #AC3136",
"N  c #BE343D",
"B  c #C0151B",
"V  c #C40A23",
"C  c #CC0B24",
"Z  c #C70F29",
"A  c #CA0A28",
"S  c #D10C2B",
"D  c #D20C25",
"F  c #C11226",
"G  c #C61B23",
"H  c #C3122B",
"J  c #CB132C",
"K  c #C41B2E",
"L  c #CB192D",
"P  c #D1162D",
"I  c #C41730",
"U  c #CA1731",
"Y  c #C41A32",
"T  c #CC1A33",
"R  c #CD1F3A",
"E  c #D61433",
"W  c #D01B34",
"Q  c #D91B37",
"!  c #E21138",
"~  c #E30A35",
"^  c #C62229",
"/  c #C3233B",
"(  c #C8273B",
")  c #D4243B",
"_  c #91244D",
"`  c #9E3F47",
"'  c #933952",
"]  c #84264B",
"[  c #B12741",
"{  c #BC3244",
"}  c #BB3D59",
"|  c #BE3C56",
" . c #C32C41",
".. c #CA2942",
"X. c #D02842",
"o. c #C9334A",
"O. c #D33149",
"+. c #D13952",
"@. c #825359",
"#. c #B8545E",
"$. c #BA4A63",
"%. c #BC4761",
"&. c #996C6F",
"*. c #8A7969",
"=. c #C5425E",
"-. c #C9445D",
";. c #D04059",
":. c #A3937C",
">. c #012381",
",. c #032C83",
"<. c #002C8A",
"1. c #00278C",
"2. c #0D3082",
"3. c #1C3681",
"4. c #1C4185",
"5. c #4C418D",
"6. c #4C5A82",
"7. c #535D87",
"8. c #606F82",
"9. c #6A6699",
"0. c #797DA2",
"q. c #747EB9",
"w. c #9E7B82",
"e. c #8B7989",
"r. c #A3658E",
"t. c #B96F86",
"y. c #A57788",
"u. c #AE7298",
"i. c #8D7FB0",
"p. c #C05D8C",
"a. c #CC748C",
"s. c #748493",
"d. c #7C8AA4",
"f. c #7E8AB3",
"g. c #B48C8D",
"h. c #848AAC",
"j. c #9F8FAA",
"k. c #9795AD",
"l. c #8F87B8",
"z. c #888FB9",
"x. c #9385B3",
"c. c #8790BB",
"v. c #889DBA",
"b. c #B084A5",
"n. c #FA969E",
"m. c #E591A9",
"M. c #C1A7A8",
"N. c #D7B8BE",
"B. c #FFB5BC",
"V. c #E6B3B8",
"C. c #8D83C2",
"Z. c #9F98CE",
"A. c #9A88C4",
"S. c #B686C2",
"D. c #B0A4C8",
"F. c #ED9CD7",
"G. c #C9A7D9",
"H. c #E0B6C2",
"J. c #E1BAD9",
"K. c #FFBDD0",
"L. c #C9B2E8",
"P. c #C3B8F2",
"I. c #CFC4D2",
"U. c #FEC7D4",
"Y. c #FFD7DF",
"T. c #FFDDDC",
"R. c #E6C8C8",
"E. c #FFEFD9",
"W. c #C9D3FF",
"Q. c #DCDFFF",
"!. c #FFD5E4",
"~. c #FFDCE4",
"^. c #FFDBEA",
"/. c #E4DFF6",
"(. c #FFDDF6",
"). c #FFD7F7",
"_. c #FFE2E5",
"`. c #FFE9E1",
"'. c #FFE4ED",
"]. c #FFEEEC",
"[. c #FFF2E1",
"{. c #FFE6F2",
"}. c #FEEAF4",
"|. c #FFE3FD",
" X c #FFECFE",
".X c #F6EDFE",
"XX c #EFF7FF",
"oX c #FFF5FE",
"OX c #FFF9FF",
"+X c #FFF3F3",
/* pixels */
">.<.1.>.6 ; t  X-.p K z |.f.: 4 4 <.>.>.",
",.& >.>.= @ 7.|.-.K R f (.f.@ 4 ,.= 4 4 ",
"3.O 2 6 6 @ r oX} a V h |.l.+ 2.2 > * > ",
"|.A.r o ; , t oX} X.R f ).i.o > X w i.L.",
"|. X XZ.0 . y OX%.g a [ |.x.$ q u.m.a.' ",
"@.H.|. XXXv.t  X%.d I [ U.j.9.G.t.` #.n.",
":.*.M.oXOX.XoX X| Y R f ~.oXJ.u.y.V.~.].",
"E.[.`._.~.^.{.!.+.a T h B.^.^.{.}.{.'.'.",
"l N M x n  . .v v ..I I v ( m N m { { b ",
"S V s K P C C L g d U L L G B B s H H Z ",
"~ ! Q P C D J F d K ) Z s ^ ^ i ( L J J ",
"..g / / / / n n ( u T K N k k N c c (  .",
"].T.'.}.{.'.Y.Y.O.A Q o.B.[.}.'.'.~._.'.",
"E.}.^.y.e.I.}.}.+.E S j U.OX.XoX}.R.g.&.",
"K.$.] r.D.d.s.(.-.Z E o.~.k.9.Q.oXoXN.w.",
"_ p.F.S.r . e oX} U A f |.h.  9 0./.oX.X",
"P.C.5.- % # t oX=.I U z (.c.+ 8 % < f.W.",
"4.7 = & 1 ; 6. X=.H U z (.c.+ 5 = + 2 3.",
": : 2 5 6 ; 6. X-.H L z (.c.+ 5 5 = 5 3 ",
"3 3 5 = 4 @ 6. X-.H U z (.c.& 5 5 = 1 1 "
};
