/* XPM */
static char *ru2[] = {
/* columns rows colors chars-per-pixel */
"15 15 23 1 ",
"  c #6F386F",
". c #DD2817",
"X c #D72A1C",
"o c #D52B1E",
"O c #C2353B",
"+ c #0C3285",
"@ c #0A3496",
"# c #0A3498",
"$ c #08399F",
"% c #292F83",
"& c #292F85",
"* c #0038A5",
"= c #003AA5",
"- c #A2BBF4",
"; c #A2BAF6",
": c #F7FEFF",
"> c #FFFEFB",
", c #FFFFFB",
"< c #FBFFFD",
"1 c #FAFDFF",
"2 c #FBFFFF",
"3 c #FFFFFD",
"4 c #FCFFFF",
/* pixels */
"222222222222222",
"111111111111111",
":::::::::::::::",
";-;-;-;-;-;-;-;",
"+++++++++++++++",
"$$$$$$$$$$$$$$$",
"***************",
"===============",
"#@#@#@#@#@#@#@#",
"&%&%&%&%&%&%&%&",
"               ",
"OOOOOOOOOOOOOOO",
"...............",
"XXXXXXXXXXXXXXX",
"ooooooooooooooo"
};
